<svg xmlns="http://www.w3.org/2000/svg" width="500" height="275" viewBox="0 0 0 0 100 0 55"><path fill="#FFF" d="M0 0H100V55H0z"/><path d="M14.546 24.348l.008.098c.005.052.445 5.237.597 8.189.017.336.03.687.044 1.049.109 2.854.244 6.406 2.566 9.012 2.179 2.445 4.361 3.5 7.288 3.522l.094.001v-.001c2.927-.022 5.109-1.077 7.288-3.522 2.323-2.606 2.457-6.159 2.566-9.013.013-.362.027-.712.044-1.048.152-2.952.592-8.137.597-8.189l.008-.098z" fill="#1A233F"/><path d="M16.923 18.359h.237c.315-1.094 1.924-3.896 5.435-4.75 0 0-1.991 1.411-2.71 3.341.167-.046.351-.065.553-.055.538.03.862.263 1.045.467.884-3.081 2.979-3.759 2.979-3.759s-.355 1.82-.342 3.458c.241-.187.569-.319 1.008-.319.358 0 .671.104.92.301.01-1.632-.342-3.437-.342-3.437s2.095.678 2.979 3.759c.214-.229.563-.426 1.135-.464.163-.01.317.003.458.039-.724-1.924-2.705-3.328-2.705-3.328 3.444.837 5.083 3.608 5.445 4.747h.238c-.062-.856.82-1.321 1.053-1.38-.479-1.032-2.432-4.192-8.498-4.46 0 0 .236-.341.244-.772.007-.356-.208-.827-.779-.917v-.817h.703v-.415h-.703v-.817h-.415v.817h-.685v.415h.685v.819a.894.894 0 0 0-.785.915c.009.431.244.772.244.772-6.079.268-7.983 3.435-8.457 4.46.293.101.525.27.733.488.238.25.352.538.327.892m-1.263 5.989h18.829c0-.013.029-.431.107-1.128H15.552c.079.697.107 1.115.108 1.128" fill="#FACC38"/><path d="M34.187 17.437c-.803.529-.5 1.31-.5 1.31s-.622-.071-.946.223c-.181.173-.279.412-.285.715-.007.365.093.649.298.843.217.206.496.256.652.266-.071.235-.339.79-1.265.79h-.005c-.898-.002-1.214-.596-1.307-.844.296-.023 1.015-.164 1.061-.996.017-.297-.066-.54-.246-.722-.275-.278-.701-.335-.91-.345.045-.183.102-.544-.022-.857-.011-.025-.206-.519-.864-.504-.809.018-1.023.496-1.072.731-.037.276.013.554.051.704-.2.018-.609.088-.871.363-.169.177-.247.407-.233.684.015.28.117.502.304.662.288.245.696.272.892.268a.964.964 0 0 1-.276.522c-.244.237-.618.351-1.114.34-1.115-.025-1.371-.641-1.43-.896.178.012.511.002.761-.204.202-.167.305-.424.305-.763a.876.876 0 0 0-.263-.662c-.268-.256-.667-.315-.879-.328.092-.226.238-.701.027-1.054-.007-.012-.247-.526-.922-.526-.692 0-.978.409-1.092.68-.102.327.013.706.091.9-.211.013-.611.072-.879.328a.88.88 0 0 0-.264.662c.001.339.103.596.306.763.249.206.582.216.76.204-.058.255-.314.896-1.429.896-1.12 0-1.368-.739-1.39-.862.195.004.604-.024.891-.269.188-.159.29-.381.304-.661.015-.277-.063-.507-.232-.684-.26-.272-.662-.343-.865-.362a1.97 1.97 0 0 0 .089-.597.968.968 0 0 0-.233-.506c-.181-.207-.44-.321-.769-.339-.318-.018-.569.055-.749.217-.197.177-.269.424-.296.565-.026.231.012.454.045.585-.209.01-.635.067-.91.345-.18.182-.263.425-.247.722.047.831.764.972 1.06.996-.095.247-.417.842-1.305.844h-.005c-.926 0-1.194-.555-1.266-.79.157-.01.436-.06.653-.266.205-.194.305-.478.297-.842a1.187 1.187 0 0 0-.049-.314c-.23-.775-1.175-.624-1.175-.624s.172-.554-.143-.962c-.77-.996-2.061-.558-2.061-.558l.04.111c.647 1.83 1 3.918 1.183 5.34h19.174c.182-1.422.535-3.51 1.183-5.34l.039-.111s-.909-.31-1.697.209m-13.5 9.651zm-1.176 1.272zm-.694-.221zm-.731 1.048c.125.467.445.942.861 1.198l.001.001.002.001.002.001a1.78 1.78 0 0 1 .577-.949l-.001-.008h-.001l-.002-.01v-.002l-.001-.003a2.354 2.354 0 0 1-.018-1.031l.001-.003v-.003l.001-.003v-.003l.002-.006v-.003l.001-.004a2.092 2.092 0 0 0-1.444-.186c-.076.333-.07.682.019 1.013zm.4 2.572c.22.029.463.022.68-.023l.001-.001h.002l.002-.001h.002a1.747 1.747 0 0 1-.17-.357l-.002-.005a1.788 1.788 0 0 1-.093-.69l.003-.028-.003-.001-.001-.001a2.367 2.367 0 0 1-.766-.738l-.001-.001-.002-.003-.002-.003-.001-.002a2.094 2.094 0 0 0-1.153.889c.182.29.433.532.73.704a2.03 2.03 0 0 0 .774.261zm-.232.211zm-.221.694zm1.048.732a2.1 2.1 0 0 0 1.194-.857l.001-.001v-.001l.002-.001v-.001l.001-.001.001-.001.001-.002.001-.002a1.778 1.778 0 0 1-.95-.577 2.35 2.35 0 0 1-1.072.019h-.003l-.003-.001a2.1 2.1 0 0 0-.186 1.444c.333.076.682.07 1.013-.018zm1.606 1.103zm.917-1.25a2.12 2.12 0 0 0 .025-.934v-.002l-.001-.001v-.004a1.777 1.777 0 0 1-.941.268l-.111-.003-.028-.002-.001.002-.001.001a2.315 2.315 0 0 1-.745.771l-.002.001c.073.237.187.455.334.647.153.2.341.372.554.506.29-.182.533-.433.704-.73.09-.155.16-.323.208-.499.001-.007.002-.014.005-.021zm.259-.022zm.695.221zm.731-1.048c-.125-.467-.445-.942-.861-1.197v-.001l-.002-.001-.001-.001h-.001l-.001-.001a1.782 1.782 0 0 1-.578.95l.002.007.003.01v.002l.001.003c.079.338.091.669.018 1.031l-.001.003-.001.003v.003l-.001.003-.001.007-.001.003v.003a2.085 2.085 0 0 0 1.443.186 2.092 2.092 0 0 0-.018-1.013zm-.401-2.572a2.064 2.064 0 0 0-.679.024h-.004l-.002.001h-.001c.069.111.126.231.17.357l.002.006a1.782 1.782 0 0 1 .092.689l-.002.028.002.001.001.001c.315.19.559.426.767.738l.001.002.001.002.002.003.002.002a2.072 2.072 0 0 0 1.152-.889 2.076 2.076 0 0 0-1.229-.911l-.02-.005a2.127 2.127 0 0 0-.255-.049zm.232-.211zm.222-.694zm-2.249.135c.375.087.698.288.949.577a2.35 2.35 0 0 1 1.072-.019h.003l.003.001a2.079 2.079 0 0 0 .187-1.444 2.094 2.094 0 0 0-2.208.875v.001l-.001.001-.001.001-.001.002-.001.001-.001.002zm-1.347.524zm-.007.005zm1.889 2.418zm.008-.005zm-.757-2.729a1.163 1.163 0 0 0-.192-.014v.002a1.533 1.533 0 0 0-.936.319l-.002.001-.001.002-.002.001-.001.001-.001.001h-.001l-.001.001-.001.001h-.001l-.001.001a1.53 1.53 0 0 0-.574 1.015l-.002.012a1.851 1.851 0 0 0-.01.18c0 .168.028.338.083.497l.001.006a1.537 1.537 0 0 0 1.45 1.033v-.002c.337-.001.665-.109.937-.319l.001-.001.002-.002.001-.001.002-.001.001-.001.002-.001.001-.001.002-.001a1.53 1.53 0 0 0 .573-1.015l.003-.012.007-.083.002-.097c0-.168-.027-.338-.082-.497l-.002-.006a1.534 1.534 0 0 0-1.258-1.019zm-.192-.26l.112.003.028.002.001-.002.001-.001c.208-.346.441-.569.744-.771l.003-.001a2.09 2.09 0 0 0-.889-1.153c-.29.182-.532.433-.704.73-.089.155-.16.323-.207.5l-.005.02a2.12 2.12 0 0 0-.025.934v.003l.001.002v.002a1.78 1.78 0 0 1 .94-.268zm8.775-1.923zm-1.176 1.272zm-.694-.221zm-.731 1.048c.125.467.445.942.861 1.197v.001l.001.001.002.001.002.001c.088-.377.289-.699.577-.95l-.001-.007-.001-.001-.002-.009v-.002l-.001-.003a2.354 2.354 0 0 1-.018-1.031l.001-.003v-.003l.001-.003v-.003l.002-.007v-.003l.001-.003a2.092 2.092 0 0 0-1.444-.186c-.076.333-.07.682.019 1.013zm.4 2.572c.22.028.463.022.68-.024h.003l.002-.001h.002a1.747 1.747 0 0 1-.17-.357l-.002-.006a1.783 1.783 0 0 1-.093-.689l.003-.028-.003-.001-.001-.001a2.367 2.367 0 0 1-.766-.738l-.001-.002-.002-.002-.002-.003-.001-.003a2.096 2.096 0 0 0-1.153.89c.182.29.433.532.73.704a2.11 2.11 0 0 0 .774.261zm-.232.211zm-.221.694zm1.048.731a2.094 2.094 0 0 0 1.194-.856l.001-.001v-.001l.002-.001v-.002h.001l.001-.001.001-.002v-.001l.001-.001a1.784 1.784 0 0 1-.95-.577 2.35 2.35 0 0 1-1.072.019l-.003-.001h-.003a2.092 2.092 0 0 0-.186 1.443c.333.077.682.071 1.013-.018zm1.606 1.103zm.917-1.249a2.12 2.12 0 0 0 .025-.934v-.002l-.001-.002v-.003a1.786 1.786 0 0 1-.941.268c-.034 0-.071-.001-.111-.004l-.028-.002-.001.003-.001.001a2.315 2.315 0 0 1-.745.771l-.002.001a2.072 2.072 0 0 0 .888 1.152c.29-.181.533-.432.704-.729.09-.155.16-.323.208-.5.001-.006.002-.013.005-.02zm.259-.023zm.695.222zm.731-1.049c-.125-.466-.445-.941-.861-1.197l-.002-.001-.001-.001h-.001l-.001-.001a1.776 1.776 0 0 1-.578.949l.002.008.003.01v.002l.001.003c.079.338.091.669.018 1.031l-.001.003-.001.003v.003l-.001.003-.001.006-.001.003v.003a2.098 2.098 0 0 0 1.443.187 2.097 2.097 0 0 0-.018-1.014zm-.401-2.571a2.091 2.091 0 0 0-.679.023l-.002.001h-.004l-.001.001c.069.111.126.231.17.357l.002.005a1.788 1.788 0 0 1 .092.69l-.002.028.002.001.001.001c.315.189.559.426.767.738l.001.001.001.003.002.003.002.002a2.086 2.086 0 0 0 1.152-.889 2.091 2.091 0 0 0-.729-.704 2.037 2.037 0 0 0-.5-.207l-.02-.005a1.947 1.947 0 0 0-.255-.049zm.232-.211zm.222-.695zm-2.249.135c.375.088.698.289.949.578a2.337 2.337 0 0 1 1.072-.019h.003l.003.001a2.077 2.077 0 0 0 .187-1.444 2.121 2.121 0 0 0-1.014.018 2.1 2.1 0 0 0-1.194.857v.001l-.001.001-.001.001-.001.001v.001l-.001.001-.001.002zm-1.347.525zm-.007.005zm1.889 2.418zm.008-.005zm-.757-2.729a1.064 1.064 0 0 0-.192-.014v.002c-.336 0-.664.109-.936.319l-.002.001-.001.001-.002.002-.001.001h-.001l-.001.001-.001.001h-.001l-.001.001-.001.001a1.53 1.53 0 0 0-.574 1.015l-.002.012a1.734 1.734 0 0 0-.01.179c0 .169.028.339.083.498l.001.006a1.537 1.537 0 0 0 1.45 1.033v-.002c.337-.001.665-.109.937-.319l.001-.002.002-.001.001-.001.002-.001.001-.001.002-.001v-.001h.001l.002-.001a1.53 1.53 0 0 0 .573-1.015l.003-.012.007-.083.002-.097c0-.168-.027-.338-.082-.497l-.002-.006a1.534 1.534 0 0 0-1.258-1.019zm-.192-.26l.112.003.028.002.001-.002.001-.001c.208-.346.441-.569.744-.771l.003-.001a2.09 2.09 0 0 0-.889-1.153c-.29.182-.532.433-.704.73-.089.155-.16.322-.207.499l-.005.021a2.12 2.12 0 0 0-.025.934v.003l.001.002v.002c.284-.177.608-.268.94-.268zm-4.652 5.587zm-1.176 1.272zm-.694-.221zm-.731 1.048c.125.467.445.942.861 1.197v.001l.001.001.002.001.002.001c.088-.377.289-.699.577-.95l-.001-.007h-.001l-.002-.01v-.002l-.001-.003a2.354 2.354 0 0 1-.018-1.031l.001-.003v-.003l.001-.003v-.003l.002-.007v-.003l.001-.003a2.092 2.092 0 0 0-1.444-.186c-.076.333-.07.682.019 1.013zm.4 2.572c.22.028.463.022.68-.024h.003l.002-.001h.002a1.747 1.747 0 0 1-.17-.357l-.002-.006a1.783 1.783 0 0 1-.093-.689l.003-.028-.003-.001-.001-.001a2.367 2.367 0 0 1-.766-.738l-.001-.002-.002-.002-.002-.003-.001-.003a2.096 2.096 0 0 0-1.153.89c.182.29.433.532.73.704.155.089.322.159.499.207l.021.005c.083.021.168.038.254.049zm-.232.211zm-.221.694zm1.048.731a2.094 2.094 0 0 0 1.194-.856l.001-.001v-.001l.002-.001v-.002h.001l.001-.001.001-.002.001-.002a1.784 1.784 0 0 1-.95-.577 2.35 2.35 0 0 1-1.072.019l-.003-.001h-.003a2.092 2.092 0 0 0-.186 1.443c.333.077.682.071 1.013-.018zm1.606 1.103zm.917-1.249a2.12 2.12 0 0 0 .025-.934v-.002l-.001-.002v-.003a1.786 1.786 0 0 1-.941.268c-.034 0-.071-.001-.111-.004l-.028-.002-.001.003-.001.001a2.315 2.315 0 0 1-.745.771l-.002.001a2.072 2.072 0 0 0 .888 1.152c.29-.181.533-.432.704-.729.09-.155.16-.323.208-.5.001-.006.002-.013.005-.02zm.259-.023zm.695.222zm.731-1.048c-.125-.467-.445-.942-.861-1.198l-.002-.001-.001-.001h-.001l-.001-.001a1.776 1.776 0 0 1-.578.949l.002.008.003.01v.002l.001.003c.079.338.091.669.018 1.031l-.001.003-.001.003v.003l-.001.003-.001.006-.001.003v.003a2.098 2.098 0 0 0 1.443.187 2.092 2.092 0 0 0-.018-1.013zm-.401-2.572a2.091 2.091 0 0 0-.679.023l-.002.001h-.004l-.001.001c.069.111.126.231.17.357l.002.005a1.788 1.788 0 0 1 .092.69l-.002.028.002.001.001.001c.315.189.559.426.767.738l.001.001.001.003.002.003.002.002a2.094 2.094 0 0 0 1.152-.889 2.091 2.091 0 0 0-.729-.704 2.037 2.037 0 0 0-.5-.207l-.02-.005a1.947 1.947 0 0 0-.255-.049zm.232-.211zm.222-.694zm-2.249.134c.375.088.698.289.949.578a2.337 2.337 0 0 1 1.072-.019h.003l.003.001a2.079 2.079 0 0 0 .187-1.444 2.121 2.121 0 0 0-1.014.018 2.1 2.1 0 0 0-1.194.857v.001l-.001.001-.001.001-.001.001v.001l-.001.001-.001.002zm-1.347.525zm-.007.005zm1.889 2.418zm.008-.005zm-.757-2.729a1.064 1.064 0 0 0-.192-.014v.002c-.336 0-.664.109-.936.319l-.002.001-.001.001-.002.002-.001.001h-.001l-.001.001-.001.001h-.001l-.001.001-.001.001a1.53 1.53 0 0 0-.574 1.015l-.002.012a1.734 1.734 0 0 0-.01.179c0 .169.028.339.083.498l.001.006a1.537 1.537 0 0 0 1.45 1.033v-.002c.337-.001.665-.109.937-.319l.001-.002.002-.001.001-.001.002-.001.001-.001.002-.001v-.001h.001l.002-.001a1.53 1.53 0 0 0 .573-1.015l.003-.012.007-.083.002-.097c0-.168-.027-.338-.082-.497l-.002-.006a1.534 1.534 0 0 0-1.258-1.019zm-.192-.26l.112.003.028.002.001-.002.001-.001c.208-.346.441-.569.744-.771l.003-.001a2.09 2.09 0 0 0-.889-1.153c-.29.182-.532.433-.704.73a2.069 2.069 0 0 0-.237 1.454v.003l.001.002v.002c.284-.177.608-.268.94-.268z" fill="#FACC38"/><path d="M56.835 22.071q2.032 0 3.087 1.599 1.055 1.599 1.055 4.566 0 1.973-.468 3.362-.467 1.389-1.393 2.118-.926.729-2.281.729-2.032 0-3.087-1.612-1.055-1.613-1.055-4.597 0-2.967 1.055-4.566 1.055-1.599 3.087-1.599zm0 1.68q-.995 0-1.475 1.059-.48 1.059-.48 3.426 0 1.681.163 2.65l3.155-6.491q-.223-.343-.557-.494-.334-.15-.806-.15zm0 9.013q.669 0 1.093-.45.425-.45.639-1.449.215-.999.215-2.629 0-1.346-.103-2.229l-3.07 6.294q.214.24.514.352.3.111.712.111z"/><path d="M48.876 30.415c0-1.289-.883-2.105-1.969-2.105-1.12 0-2.003.816-2.003 2.105 0 1.307.833 2.122 2.003 2.122 1.154 0 1.969-.832 1.969-2.122m-4.21 4.345c.153.917.883 1.578 1.953 1.578 1.425 0 2.223-.712 2.223-2.325v-.61c-.34.543-1.121 1.069-2.326 1.069-2.223 0-3.887-1.715-3.887-4.057 0-2.206 1.596-4.074 3.887-4.074 1.325 0 2.088.578 2.377 1.138v-.985h2.173v7.452c0 2.291-1.239 4.378-4.379 4.378-2.291 0-3.819-1.425-4.058-3.021z" fill="#000105"/><path d="M67.132 34.429H65.08l-3.1-8.051h2.252l1.882 5.4 1.804-5.4h2.159zm5.386-2.729c.047.602.494 1.156 1.388 1.156.679 0 1.004-.354 1.004-.755 0-.34-.232-.618-.817-.741l-1.002-.232c-1.467-.324-2.129-1.202-2.129-2.266 0-1.358 1.201-2.484 2.836-2.484 2.16 0 2.885 1.373 2.977 2.191l-1.711.386c-.062-.448-.386-1.019-1.25-1.019-.539 0-.97.324-.97.756 0 .371.276.601.693.678l1.079.232c1.498.308 2.253 1.218 2.253 2.329 0 1.234-.957 2.498-2.947 2.498-2.282 0-3.069-1.48-3.161-2.344zm11.197-2.16c-.031-.756-.525-1.496-1.697-1.496-1.064 0-1.65.801-1.697 1.496zm1.912 2.482c-.386 1.312-1.588 2.407-3.455 2.407-2.082 0-3.918-1.496-3.918-4.057 0-2.421 1.79-3.994 3.733-3.994 2.344 0 3.748 1.496 3.748 3.932 0 .294-.03.602-.03.633h-5.43c.046 1.002.894 1.728 1.913 1.728.956 0 1.48-.479 1.727-1.157z" fill="#080000"/></svg>
