<svg height="275" viewBox="0 0 500 275" width="500" xmlns="http://www.w3.org/2000/svg"><path d="m306.558 91.517q11.498 0 17.468 9.048 5.969 9.048 5.969 25.836 0 11.164-2.648 19.024-2.642 7.859-7.882 11.984-5.24 4.125-12.907 4.125-11.498 0-17.467-9.121-5.97-9.127-5.97-26.012 0-16.788 5.97-25.836 5.969-9.048 17.467-9.048zm0 9.506q-5.63 0-8.346 5.992-2.716 5.993-2.716 19.386 0 9.512.922 14.995l17.853-36.729q-1.262-1.941-3.152-2.795-1.89-.849-4.561-.849zm0 50.999q3.786 0 6.185-2.546 2.405-2.546 3.615-8.199 1.217-5.653 1.217-14.876 0-7.616-.583-12.613l-17.371 35.614q1.211 1.358 2.908 1.992 1.698.628 4.029.628z"/><path d="m261.523 138.731c0-7.294-4.996-11.911-11.141-11.911-6.338 0-11.334 4.617-11.334 11.911 0 7.395 4.713 12.007 11.334 12.007 6.529 0 11.141-4.708 11.141-12.007m-23.822 24.585c.866 5.189 4.996 8.929 11.051 8.929 8.063 0 12.579-4.028 12.579-13.155v-3.452c-1.924 3.073-6.344 6.049-13.162 6.049-12.579 0-21.994-9.704-21.994-22.956 0-12.483 9.031-23.053 21.994-23.053 7.497 0 11.815 3.271 13.45 6.44v-5.574h12.296v42.167c0 12.963-7.011 24.772-24.778 24.772-12.964 0-21.61-8.063-22.962-17.094z" fill="#000105"/><path d="m364.823 161.444h-11.611l-17.541-45.556h12.742l10.649 30.555 10.208-30.555h12.217zm30.476-15.442c.266 3.406 2.795 6.541 7.854 6.541 3.842 0 5.681-2.003 5.681-4.272 0-1.924-1.313-3.497-4.623-4.193l-5.67-1.313c-8.301-1.833-12.047-6.801-12.047-12.822 0-7.684 6.796-14.055 16.048-14.055 12.222 0 16.324 7.769 16.845 12.397l-9.682 2.184c-.351-2.535-2.184-5.765-7.073-5.765-3.05 0-5.489 1.833-5.489 4.277 0 2.1 1.562 3.401 3.922 3.837l6.105 1.312c8.476 1.743 12.748 6.892 12.748 13.179 0 6.982-5.415 14.135-16.675 14.135-12.912 0-17.365-8.375-17.886-13.264zm63.357-12.222c-.176-4.278-2.971-8.465-9.602-8.465-6.021 0-9.337 4.532-9.603 8.465zm10.819 14.044c-2.184 7.424-8.986 13.62-19.55 13.62-11.781 0-22.17-8.465-22.17-22.957 0-13.699 10.129-22.599 21.123-22.599 13.263 0 21.208 8.465 21.208 22.249 0 1.663-.17 3.406-.17 3.581h-30.725c.26 5.67 5.059 9.778 10.825 9.778 5.409 0 8.374-2.71 9.772-6.547z" fill="#080000"/><path d="m110.096 218.347c-44.65 0-80.847-36.196-80.847-80.847s36.197-80.847 80.847-80.847c44.651 0 80.847 36.196 80.847 80.847s-36.196 80.847-80.847 80.847z" fill="#1a233f"/><path d="m60.122 102.398c.894 3.339 3.182 6.736 6.157 8.566l.007.008.014.007.014.007c.617-2.644 2.063-5.022 4.127-6.786l-.008-.057h-.007l-.014-.072v-.014l-.007-.022c-.587-2.418-.631-4.936-.129-7.372l.007-.022v-.021l.007-.022v-.021l.015-.043v-.022l.007-.028c-3.172-1.666-6.836-2.137-10.326-1.33-.545 2.389-.499 4.876.136 7.244zm2.86 18.392c1.573.207 3.311.157 4.863-.165l.007-.007h.014l.015-.007h.014c-.501-.802-.909-1.658-1.216-2.553l-.014-.035c-.543-1.586-.769-3.262-.665-4.935l.021-.2-.021-.007-.007-.007c-2.203-1.321-4.076-3.126-5.478-5.278l-.007-.007-.014-.021-.015-.022-.007-.014c-3.42 1.065-6.345 3.32-8.245 6.357 1.305 2.077 3.097 3.805 5.22 5.035 1.7.99 3.583 1.625 5.535 1.866zm4.255 11.706c3.491-.948 6.523-3.124 8.538-6.128l.007-.007v-.008l.015-.007v-.007l.007-.007.007-.007.007-.015.007-.014c-2.647-.614-5.028-2.06-6.793-4.126-2.511.635-5.134.682-7.666.136h-.021l-.022-.007c-1.66 3.173-2.132 6.835-1.33 10.326 2.389.544 4.875.5 7.244-.129zm18.042-1.051c.555-2.186.616-4.467.179-6.679v-.015l-.008-.007v-.028c-2.019 1.256-4.35 1.92-6.729 1.916l-.793-.021-.201-.015-.007.015-.007.007c-1.32 2.229-3.145 4.118-5.327 5.513l-.015.007c.516 1.672 1.324 3.239 2.389 4.627 1.095 1.432 2.436 2.657 3.961 3.618 2.074-1.301 3.812-3.096 5.035-5.22.648-1.12 1.148-2.319 1.487-3.568.007-.05.014-.1.036-.15zm12.049-6.071c-.894-3.34-3.182-6.737-6.157-8.56v-.007l-.014-.007-.007-.008h-.008l-.007-.007c-.618 2.648-2.066 5.028-4.133 6.794l.014.05.022.071v.015l.007.021c.565 2.417.651 4.784.129 7.373l-.007.021-.007.022v.021l-.008.022-.007.05-.007.021v.022c3.168 1.667 6.831 2.14 10.319 1.33.551-2.389.507-4.877-.129-7.244zm-2.867-18.393c-1.617-.211-3.258-.153-4.856.172h-.029l-.014.007h-.007c.498.804.905 1.66 1.216 2.553l.014.043c.541 1.583.764 3.257.658 4.927l-.014.2.014.007.007.008c2.253 1.358 3.997 3.046 5.485 5.277l.007.014.007.015.014.021.015.014c3.424-1.053 6.35-3.312 8.238-6.357-1.994-3.211-5.137-5.541-8.789-6.514l-.143-.036c-.6-.154-1.209-.271-1.823-.351zm-12.836-5.506c2.681.622 4.991 2.06 6.786 4.126 2.511-.635 5.134-.682 7.666-.136h.021l.022.008c1.676-3.169 2.15-6.836 1.337-10.326-6.052-1.39-12.333 1.099-15.789 6.257v.007l-.008.007-.007.007-.007.014-.007.008-.007.014zm-1.531 1.523c-.454-.071-.913-.104-1.373-.1v.014c-2.421.001-4.775.803-6.693 2.282l-.014.007-.007.014-.015.007-.007.008-.007.007h-.007l-.007.007-.007.007h-.008l-.007.007c-2.272 1.783-3.748 4.392-4.104 7.258l-.015.086c-.044.428-.068.857-.071 1.287 0 1.202.2 2.417.593 3.554l.008.043c1.533 4.417 5.693 7.381 10.368 7.387v-.014c2.41-.007 4.756-.78 6.701-2.281l.007-.008.014-.014.007-.007.015-.007.007-.007.014-.007.007-.008.015-.007c2.27-1.784 3.743-4.393 4.097-7.258l.022-.086.05-.593.014-.694c0-1.201-.193-2.417-.586-3.554l-.015-.043c-1.368-3.942-4.855-6.767-8.996-7.287zm-1.373-1.859.801.022.2.014.008-.014.007-.008c1.487-2.474 3.153-4.068 5.32-5.513l.022-.007c-1.063-3.422-3.319-6.348-6.358-8.245-2.077 1.305-3.805 3.097-5.034 5.22-.636 1.109-1.144 2.31-1.48 3.576l-.036.142c-.555 2.186-.617 4.468-.179 6.679v.022l.008.014v.015c2.017-1.254 4.346-1.918 6.721-1.917zm44.15 1.259c.894 3.339 3.182 6.736 6.157 8.559v.007l.007.008.015.007.014.007c.629-2.696 2.067-4.999 4.126-6.794l-.007-.049-.007-.008-.015-.064v-.014l-.007-.022c-.587-2.418-.631-4.936-.128-7.372l.007-.022v-.021l.007-.022v-.021l.014-.05v-.022l.007-.021c-3.171-1.665-6.835-2.137-10.326-1.33-.545 2.389-.498 4.876.136 7.244zm2.861 18.392c1.573.2 3.311.157 4.862-.172h.022l.014-.007h.014c-.5-.802-.908-1.658-1.215-2.553l-.015-.043c-.542-1.582-.768-3.257-.665-4.927l.022-.2-.022-.007-.007-.007c-2.202-1.321-4.076-3.126-5.477-5.278l-.007-.014-.015-.014-.014-.022-.007-.021c-3.421 1.068-6.346 3.325-8.245 6.364 1.305 2.077 3.097 3.805 5.22 5.035 1.706.976 3.586 1.61 5.535 1.866zm4.254 11.699c3.492-.942 6.525-3.117 8.539-6.121l.007-.007v-.008l.014-.007v-.014h.007l.007-.007.008-.015v-.007l.007-.007c-2.646-.617-5.026-2.062-6.794-4.126-2.51.635-5.134.682-7.665.136l-.022-.007h-.021c-1.664 3.169-2.136 6.831-1.33 10.319 2.388.551 4.876.507 7.243-.129zm18.042-1.044c.556-2.186.617-4.467.179-6.679v-.015l-.007-.014v-.021c-2.021 1.253-4.351 1.916-6.729 1.916-.243 0-.508-.007-.794-.028l-.2-.015-.007.022-.007.007c-1.32 2.229-3.145 4.118-5.328 5.513l-.014.007c1.051 3.424 3.307 6.35 6.35 8.238 2.08-1.298 3.809-3.089 5.034-5.213.65-1.122 1.15-2.324 1.488-3.575.007-.043.014-.093.035-.143zm12.05-6.079c-.894-3.332-3.182-6.729-6.157-8.559l-.015-.007-.007-.008h-.007l-.007-.007c-.617 2.646-2.065 5.025-4.133 6.787l.014.057.021.071v.015l.008.021c.564 2.417.65 4.784.128 7.373l-.007.021-.007.022v.021l-.007.022-.007.042-.008.022v.021c3.17 1.663 6.83 2.137 10.319 1.338.551-2.392.507-4.881-.128-7.252zm-2.868-18.385c-1.616-.21-3.257-.154-4.855.165l-.015.007h-.028l-.007.007c.497.804.905 1.66 1.215 2.553l.015.036c.54 1.586.764 3.262.657 4.934l-.014.2.014.007.008.008c2.252 1.351 3.997 3.046 5.484 5.277l.008.007.007.022.014.021.014.014c3.42-1.061 6.344-3.318 8.238-6.357-1.298-2.08-3.089-3.809-5.213-5.034-1.121-.65-2.323-1.148-3.575-1.48l-.143-.036c-.6-.157-1.209-.274-1.824-.351zm-12.836-5.513c2.682.629 4.992 2.067 6.786 4.133 2.511-.638 5.135-.685 7.666-.136h.022l.021.008c1.677-3.168 2.152-6.836 1.337-10.326-2.392-.544-4.88-.5-7.251.128-3.491.948-6.523 3.124-8.538 6.129v.007l-.007.007-.007.007-.007.007v.007l-.008.008-.007.014zm-1.53 1.53c-.454-.074-.913-.108-1.373-.1v.014c-2.403 0-4.748.78-6.693 2.282l-.015.007-.007.007-.014.014-.007.008h-.008l-.007.007-.007.007h-.007l-.007.007-.007.007c-2.273 1.783-3.748 4.392-4.105 7.258l-.014.086c-.046.425-.07.853-.072 1.28 0 1.209.201 2.424.594 3.561l.007.043c1.533 4.417 5.693 7.381 10.369 7.387v-.014c2.41-.007 4.755-.78 6.7-2.281l.008-.015.014-.007.007-.007.014-.007.007-.007.015-.007v-.008h.007l.014-.007c2.27-1.784 3.743-4.393 4.098-7.258l.021-.086.05-.593.014-.694c0-1.201-.193-2.417-.586-3.554l-.014-.043c-1.369-3.942-4.856-6.767-8.996-7.287zm-1.373-1.859.801.022.2.014.007-.014.007-.008c1.488-2.474 3.154-4.068 5.321-5.513l.021-.007c-1.062-3.422-3.318-6.348-6.357-8.245-2.077 1.305-3.805 3.097-5.034 5.22-.637 1.109-1.145 2.303-1.481 3.568l-.035.15c-.556 2.186-.617 4.468-.179 6.679v.022l.007.014v.015c2.031-1.266 4.348-1.917 6.722-1.917zm-51.866 54.962c.894 3.34 3.182 6.736 6.157 8.56v.007l.007.007.015.007.014.008c.629-2.696 2.067-4.999 4.126-6.794l-.007-.05h-.007l-.015-.071v-.015l-.007-.021c-.587-2.418-.631-4.936-.129-7.373l.008-.021v-.022l.007-.021v-.022l.014-.05v-.021l.007-.021c-3.172-1.666-6.836-2.138-10.326-1.331-.545 2.39-.498 4.877.136 7.244zm2.861 18.393c1.573.2 3.31.157 4.862-.172h.022l.014-.007h.014c-.5-.803-.908-1.659-1.216-2.553l-.014-.043c-.543-1.583-.769-3.257-.665-4.927l.022-.2-.022-.008-.007-.007c-2.203-1.32-4.076-3.125-5.477-5.277l-.008-.014-.014-.015-.014-.021-.008-.021c-3.42 1.067-6.345 3.325-8.245 6.364 1.306 2.077 3.097 3.805 5.221 5.034 1.121.644 2.32 1.142 3.568 1.48l.15.036c.594.15 1.202.272 1.817.351zm4.254 11.698c3.492-.942 6.525-3.116 8.539-6.121l.007-.007v-.007l.014-.007v-.015h.007l.007-.007.007-.014.007-.014c-2.646-.617-5.026-2.063-6.793-4.126-2.51.635-5.134.682-7.666.135l-.021-.007h-.022c-1.663 3.17-2.135 6.831-1.33 10.319 2.389.551 4.877.507 7.244-.129zm18.042-1.044c.556-2.185.617-4.467.179-6.679v-.014l-.007-.014v-.022c-2.021 1.253-4.352 1.917-6.729 1.917-.244 0-.508-.007-.794-.029l-.2-.014-.007.021-.008.008c-1.32 2.229-3.144 4.117-5.327 5.513l-.014.007c1.051 3.423 3.307 6.349 6.35 8.238 2.08-1.299 3.809-3.089 5.034-5.213.65-1.122 1.15-2.324 1.487-3.576.007-.042.015-.093.036-.143zm12.05-6.071c-.894-3.339-3.183-6.736-6.158-8.567l-.014-.007-.007-.007h-.007l-.007-.007c-.617 2.646-2.065 5.024-4.133 6.786l.014.057.021.072v.014l.007.022c.565 2.417.651 4.784.129 7.372l-.007.022-.007.021v.022l-.007.021-.008.043-.007.021v.022c3.17 1.662 6.83 2.137 10.319 1.337.551-2.389.507-4.876-.128-7.244zm-2.868-18.392c-1.617-.21-3.257-.155-4.856.164l-.014.008h-.028l-.008.007c.498.804.906 1.66 1.216 2.553l.014.035c.541 1.586.764 3.263.658 4.935l-.014.2.014.007.007.007c2.253 1.352 3.998 3.046 5.485 5.277l.007.008.007.021.015.022.014.014c3.418-1.066 6.34-3.322 8.238-6.357-1.299-2.08-3.089-3.809-5.213-5.035-1.121-.65-2.323-1.148-3.575-1.48l-.144-.036c-.599-.157-1.208-.274-1.823-.35zm-12.836-5.513c2.682.629 4.991 2.066 6.786 4.133 2.511-.639 5.135-.685 7.666-.136h.021l.022.007c1.676-3.168 2.151-6.835 1.337-10.326-2.392-.544-4.88-.5-7.251.129-3.491.948-6.523 3.124-8.538 6.128v.008l-.007.007-.007.007-.008.007v.007l-.007.007-.007.014zm-1.53 1.53c-.454-.075-.914-.108-1.373-.1v.014c-2.403 0-4.749.78-6.693 2.281l-.015.007-.007.007-.014.015-.008.007h-.007l-.007.007-.007.007h-.007l-.007.008-.007.007c-2.273 1.782-3.749 4.391-4.105 7.258l-.014.086c-.046.425-.07.852-.072 1.28 0 1.208.2 2.424.594 3.561l.007.043c1.533 4.417 5.693 7.381 10.369 7.387v-.015c2.41-.007 4.755-.779 6.7-2.281l.007-.014.015-.007.007-.007.014-.008.007-.007.014-.007v-.007h.008l.014-.007c2.27-1.784 3.743-4.393 4.097-7.258l.022-.086.05-.594.014-.693c0-1.202-.193-2.417-.586-3.554l-.014-.043c-1.369-3.943-4.856-6.767-8.996-7.287zm-1.373-1.859.801.021.2.014.007-.014.007-.007c1.487-2.474 3.154-4.069 5.32-5.513l.022-.008c-1.063-3.421-3.319-6.347-6.357-8.245-2.078 1.306-3.805 3.097-5.035 5.221-1.821 3.14-2.424 6.841-1.694 10.397v.021l.007.015v.014c2.031-1.266 4.348-1.916 6.722-1.916z" fill="#facc38"/></svg>