<?xml version="1.0" encoding="UTF-8"?>
<!DOCTYPE svg PUBLIC "-//W3C//DTD SVG 1.1//EN" "http://www.w3.org/Graphics/SVG/1.1/DTD/svg11.dtd">
<svg version="1.1" xmlns="http://www.w3.org/2000/svg" xmlns:xlink="http://www.w3.org/1999/xlink" x="0" y="0" width="161.694" height="161.694" viewBox="0, 0, 161.694, 161.694">
  <g id="Calque_1" transform="translate(-29.249, -56.653)">
    <g>
      <path d="M110.096,218.347 C65.446,218.347 29.249,182.151 29.249,137.5 C29.249,92.849 65.446,56.653 110.096,56.653 C154.747,56.653 190.943,92.849 190.943,137.5 C190.943,182.151 154.747,218.347 110.096,218.347 z" fill="#1A233F"/>
      <path d="M78.721,87.388 z M70.312,96.484 z M65.349,94.904 z M60.122,102.398 C61.016,105.737 63.304,109.134 66.279,110.964 L66.286,110.972 L66.3,110.979 L66.314,110.986 C66.931,108.342 68.377,105.964 70.441,104.2 L70.433,104.143 L70.426,104.143 L70.412,104.071 L70.412,104.057 L70.405,104.035 C69.818,101.617 69.774,99.099 70.276,96.663 L70.283,96.641 L70.283,96.62 L70.29,96.598 L70.29,96.577 L70.305,96.534 L70.305,96.512 L70.312,96.484 C67.14,94.818 63.476,94.347 59.986,95.154 C59.441,97.543 59.487,100.03 60.122,102.398 z M62.982,120.79 C64.555,120.997 66.293,120.947 67.845,120.625 L67.852,120.618 L67.866,120.618 L67.881,120.611 L67.895,120.611 C67.394,119.809 66.986,118.953 66.679,118.058 L66.665,118.023 C66.122,116.437 65.896,114.761 66,113.088 L66.021,112.888 L66,112.881 L65.993,112.874 C63.79,111.553 61.917,109.748 60.515,107.596 L60.508,107.589 L60.494,107.568 L60.479,107.546 L60.472,107.532 C57.052,108.597 54.127,110.852 52.227,113.889 C53.532,115.966 55.324,117.694 57.447,118.924 C59.147,119.914 61.03,120.549 62.982,120.79 z M61.323,122.299 z M59.743,127.262 z M67.237,132.496 C70.728,131.548 73.76,129.372 75.775,126.368 L75.782,126.361 L75.782,126.353 L75.797,126.346 L75.797,126.339 L75.804,126.332 L75.811,126.325 L75.818,126.31 L75.825,126.296 C73.178,125.682 70.797,124.236 69.032,122.17 C66.521,122.805 63.898,122.852 61.366,122.306 L61.345,122.306 L61.323,122.299 C59.663,125.472 59.191,129.134 59.993,132.625 C62.382,133.169 64.868,133.125 67.237,132.496 z M78.721,140.383 z M85.279,131.445 C85.834,129.259 85.895,126.978 85.458,124.766 L85.458,124.751 L85.45,124.744 L85.45,124.716 C83.431,125.972 81.1,126.636 78.721,126.632 L77.928,126.611 L77.727,126.596 L77.72,126.611 L77.713,126.618 C76.393,128.847 74.568,130.736 72.386,132.131 L72.371,132.138 C72.887,133.81 73.695,135.377 74.76,136.765 C75.855,138.197 77.196,139.422 78.721,140.383 C80.795,139.082 82.533,137.287 83.756,135.163 C84.404,134.043 84.904,132.844 85.243,131.595 C85.25,131.545 85.257,131.495 85.279,131.445 z M87.131,131.288 z M92.101,132.868 z M97.328,125.374 C96.434,122.034 94.146,118.637 91.171,116.814 L91.171,116.807 L91.157,116.8 L91.15,116.792 L91.142,116.792 L91.135,116.785 C90.517,119.433 89.069,121.813 87.002,123.579 L87.016,123.629 L87.038,123.7 L87.038,123.715 L87.045,123.736 C87.61,126.153 87.696,128.52 87.174,131.109 L87.167,131.13 L87.16,131.152 L87.16,131.173 L87.152,131.195 L87.145,131.245 L87.138,131.266 L87.138,131.288 C90.306,132.955 93.969,133.428 97.457,132.618 C98.008,130.229 97.964,127.741 97.328,125.374 z M94.461,106.981 C92.844,106.77 91.203,106.828 89.605,107.153 L89.576,107.153 L89.562,107.16 L89.555,107.16 C90.053,107.964 90.46,108.82 90.771,109.713 L90.785,109.756 C91.326,111.339 91.549,113.013 91.443,114.683 L91.429,114.883 L91.443,114.89 L91.45,114.898 C93.703,116.256 95.447,117.944 96.935,120.175 L96.942,120.189 L96.949,120.204 L96.963,120.225 L96.978,120.239 C100.402,119.186 103.328,116.927 105.216,113.882 C103.222,110.671 100.079,108.341 96.427,107.368 L96.284,107.332 C95.684,107.178 95.075,107.061 94.461,106.981 z M96.12,105.473 z M97.707,100.51 z M81.625,101.475 C84.306,102.097 86.616,103.535 88.411,105.601 C90.922,104.966 93.545,104.919 96.077,105.465 L96.098,105.465 L96.12,105.473 C97.796,102.304 98.27,98.637 97.457,95.147 C91.405,93.757 85.124,96.246 81.668,101.404 L81.668,101.411 L81.66,101.418 L81.653,101.425 L81.646,101.439 L81.639,101.447 L81.632,101.461 z M71.992,105.222 z M71.942,105.258 z M85.45,122.549 z M85.508,122.513 z M80.094,102.998 C79.64,102.927 79.181,102.894 78.721,102.898 L78.721,102.912 C76.3,102.913 73.946,103.715 72.028,105.194 L72.014,105.201 L72.007,105.215 L71.992,105.222 L71.985,105.23 L71.978,105.237 L71.971,105.237 L71.964,105.244 L71.957,105.251 L71.949,105.251 L71.942,105.258 C69.67,107.041 68.194,109.65 67.838,112.516 L67.823,112.602 C67.779,113.03 67.755,113.459 67.752,113.889 C67.752,115.091 67.952,116.306 68.345,117.443 L68.353,117.486 C69.886,121.903 74.046,124.867 78.721,124.873 L78.721,124.859 C81.131,124.852 83.477,124.079 85.422,122.578 L85.429,122.57 L85.443,122.556 L85.45,122.549 L85.465,122.542 L85.472,122.535 L85.486,122.528 L85.493,122.52 L85.508,122.513 C87.778,120.729 89.251,118.12 89.605,115.255 L89.627,115.169 L89.677,114.576 L89.691,113.882 C89.691,112.681 89.498,111.465 89.105,110.328 L89.09,110.285 C87.722,106.343 84.235,103.518 80.094,102.998 z M78.721,101.139 L79.522,101.161 L79.722,101.175 L79.73,101.161 L79.737,101.153 C81.224,98.679 82.89,97.085 85.057,95.64 L85.079,95.633 C84.016,92.211 81.76,89.285 78.721,87.388 C76.644,88.693 74.916,90.485 73.687,92.608 C73.051,93.717 72.543,94.918 72.207,96.184 L72.171,96.326 C71.616,98.512 71.554,100.794 71.992,103.005 L71.992,103.027 L72,103.041 L72,103.056 C74.017,101.802 76.346,101.138 78.721,101.139 z M141.471,87.388 z M133.061,96.484 z M128.099,94.904 z M122.871,102.398 C123.765,105.737 126.053,109.134 129.028,110.957 L129.028,110.964 L129.035,110.972 L129.05,110.979 L129.064,110.986 C129.693,108.29 131.131,105.987 133.19,104.192 L133.183,104.143 L133.176,104.135 L133.161,104.071 L133.161,104.057 L133.154,104.035 C132.567,101.617 132.523,99.099 133.026,96.663 L133.033,96.641 L133.033,96.62 L133.04,96.598 L133.04,96.577 L133.054,96.527 L133.054,96.505 L133.061,96.484 C129.89,94.819 126.226,94.347 122.735,95.154 C122.19,97.543 122.237,100.03 122.871,102.398 z M125.732,120.79 C127.305,120.99 129.043,120.947 130.594,120.618 L130.616,120.618 L130.63,120.611 L130.644,120.611 C130.144,119.809 129.736,118.953 129.429,118.058 L129.414,118.015 C128.872,116.433 128.646,114.758 128.749,113.088 L128.771,112.888 L128.749,112.881 L128.742,112.874 C126.54,111.553 124.666,109.748 123.265,107.596 L123.258,107.582 L123.243,107.568 L123.229,107.546 L123.222,107.525 C119.801,108.593 116.876,110.85 114.977,113.889 C116.282,115.966 118.074,117.694 120.197,118.924 C121.903,119.9 123.783,120.534 125.732,120.79 z M124.073,122.299 z M122.492,127.262 z M129.986,132.489 C133.478,131.547 136.511,129.372 138.525,126.368 L138.532,126.361 L138.532,126.353 L138.546,126.346 L138.546,126.332 L138.553,126.332 L138.56,126.325 L138.568,126.31 L138.568,126.303 L138.575,126.296 C135.929,125.679 133.549,124.234 131.781,122.17 C129.271,122.805 126.647,122.852 124.116,122.306 L124.094,122.299 L124.073,122.299 C122.409,125.468 121.937,129.13 122.743,132.618 C125.131,133.169 127.619,133.125 129.986,132.489 z M141.471,140.376 z M148.028,131.445 C148.584,129.259 148.645,126.978 148.207,124.766 L148.207,124.751 L148.2,124.737 L148.2,124.716 C146.179,125.969 143.849,126.632 141.471,126.632 C141.228,126.632 140.963,126.625 140.677,126.604 L140.477,126.589 L140.47,126.611 L140.463,126.618 C139.143,128.847 137.318,130.736 135.135,132.131 L135.121,132.138 C136.172,135.562 138.428,138.488 141.471,140.376 C143.551,139.078 145.28,137.287 146.505,135.163 C147.155,134.041 147.655,132.839 147.993,131.588 C148,131.545 148.007,131.495 148.028,131.445 z M149.88,131.28 z M154.85,132.868 z M160.078,125.366 C159.184,122.034 156.896,118.637 153.921,116.807 L153.906,116.8 L153.899,116.792 L153.892,116.792 L153.885,116.785 C153.268,119.431 151.82,121.81 149.752,123.572 L149.766,123.629 L149.787,123.7 L149.787,123.715 L149.795,123.736 C150.359,126.153 150.445,128.52 149.923,131.109 L149.916,131.13 L149.909,131.152 L149.909,131.173 L149.902,131.195 L149.895,131.237 L149.887,131.259 L149.887,131.28 C153.057,132.943 156.717,133.417 160.206,132.618 C160.757,130.226 160.713,127.737 160.078,125.366 z M157.21,106.981 C155.594,106.771 153.953,106.827 152.355,107.146 L152.34,107.153 L152.312,107.153 L152.305,107.16 C152.802,107.964 153.21,108.82 153.52,109.713 L153.535,109.749 C154.075,111.335 154.299,113.011 154.192,114.683 L154.178,114.883 L154.192,114.89 L154.2,114.898 C156.452,116.249 158.197,117.944 159.684,120.175 L159.692,120.182 L159.699,120.204 L159.713,120.225 L159.727,120.239 C163.147,119.178 166.071,116.921 167.965,113.882 C166.667,111.802 164.876,110.073 162.752,108.848 C161.631,108.198 160.429,107.7 159.177,107.368 L159.034,107.332 C158.434,107.175 157.825,107.058 157.21,106.981 z M158.869,105.473 z M160.457,100.503 z M144.374,101.468 C147.056,102.097 149.366,103.535 151.16,105.601 C153.671,104.963 156.295,104.916 158.826,105.465 L158.848,105.465 L158.869,105.473 C160.546,102.305 161.021,98.637 160.206,95.147 C157.814,94.603 155.326,94.647 152.955,95.275 C149.464,96.223 146.432,98.399 144.417,101.404 L144.417,101.411 L144.41,101.418 L144.403,101.425 L144.396,101.432 L144.396,101.439 L144.388,101.447 L144.381,101.461 z M134.742,105.222 z M134.692,105.258 z M148.2,122.549 z M148.257,122.513 z M142.844,102.998 C142.39,102.924 141.931,102.89 141.471,102.898 L141.471,102.912 C139.068,102.912 136.723,103.692 134.778,105.194 L134.763,105.201 L134.756,105.208 L134.742,105.222 L134.735,105.23 L134.727,105.23 L134.72,105.237 L134.713,105.244 L134.706,105.244 L134.699,105.251 L134.692,105.258 C132.419,107.041 130.944,109.65 130.587,112.516 L130.573,112.602 C130.527,113.027 130.503,113.455 130.501,113.882 C130.501,115.091 130.702,116.306 131.095,117.443 L131.102,117.486 C132.635,121.903 136.795,124.867 141.471,124.873 L141.471,124.859 C143.881,124.852 146.226,124.079 148.171,122.578 L148.179,122.563 L148.193,122.556 L148.2,122.549 L148.214,122.542 L148.221,122.535 L148.236,122.528 L148.236,122.52 L148.243,122.52 L148.257,122.513 C150.527,120.729 152,118.12 152.355,115.255 L152.376,115.169 L152.426,114.576 L152.44,113.882 C152.44,112.681 152.247,111.465 151.854,110.328 L151.84,110.285 C150.471,106.343 146.984,103.518 142.844,102.998 z M141.471,101.139 L142.272,101.161 L142.472,101.175 L142.479,101.161 L142.486,101.153 C143.974,98.679 145.64,97.085 147.807,95.64 L147.828,95.633 C146.766,92.211 144.51,89.285 141.471,87.388 C139.394,88.693 137.666,90.485 136.437,92.608 C135.8,93.717 135.292,94.911 134.956,96.176 L134.921,96.326 C134.365,98.512 134.304,100.794 134.742,103.005 L134.742,103.027 L134.749,103.041 L134.749,103.056 C136.78,101.79 139.097,101.139 141.471,101.139 z M108.205,141.091 z M99.795,150.188 z M94.832,148.607 z M89.605,156.101 C90.499,159.441 92.787,162.837 95.762,164.661 L95.762,164.668 L95.769,164.675 L95.784,164.682 L95.798,164.69 C96.427,161.994 97.865,159.691 99.924,157.896 L99.917,157.846 L99.91,157.846 L99.895,157.775 L99.895,157.76 L99.888,157.739 C99.301,155.321 99.257,152.803 99.759,150.366 L99.767,150.345 L99.767,150.323 L99.774,150.302 L99.774,150.28 L99.788,150.23 L99.788,150.209 L99.795,150.188 C96.623,148.522 92.959,148.05 89.469,148.857 C88.924,151.247 88.971,153.734 89.605,156.101 z M92.466,174.494 C94.039,174.694 95.776,174.651 97.328,174.322 L97.35,174.322 L97.364,174.315 L97.378,174.315 C96.878,173.512 96.47,172.656 96.162,171.762 L96.148,171.719 C95.605,170.136 95.379,168.462 95.483,166.792 L95.505,166.592 L95.483,166.584 L95.476,166.577 C93.273,165.257 91.4,163.452 89.999,161.3 L89.991,161.286 L89.977,161.271 L89.963,161.25 L89.955,161.229 C86.535,162.296 83.61,164.554 81.71,167.593 C83.016,169.67 84.807,171.398 86.931,172.627 C88.052,173.271 89.251,173.769 90.499,174.107 L90.649,174.143 C91.243,174.293 91.851,174.415 92.466,174.494 z M90.806,176.002 z M89.226,180.965 z M96.72,186.192 C100.212,185.25 103.245,183.076 105.259,180.071 L105.266,180.064 L105.266,180.057 L105.28,180.05 L105.28,180.035 L105.287,180.035 L105.294,180.028 L105.301,180.014 L105.308,180 C102.662,179.383 100.282,177.937 98.515,175.874 C96.005,176.509 93.381,176.556 90.849,176.009 L90.828,176.002 L90.806,176.002 C89.143,179.172 88.671,182.833 89.476,186.321 C91.865,186.872 94.353,186.828 96.72,186.192 z M108.205,194.08 z M114.762,185.148 C115.318,182.963 115.379,180.681 114.941,178.469 L114.941,178.455 L114.934,178.441 L114.934,178.419 C112.913,179.672 110.582,180.336 108.205,180.336 C107.961,180.336 107.697,180.329 107.411,180.307 L107.211,180.293 L107.204,180.314 L107.196,180.322 C105.876,182.551 104.052,184.439 101.869,185.835 L101.855,185.842 C102.906,189.265 105.162,192.191 108.205,194.08 C110.285,192.781 112.014,190.991 113.239,188.867 C113.889,187.745 114.389,186.543 114.726,185.291 C114.733,185.249 114.741,185.198 114.762,185.148 z M116.614,184.984 z M121.584,186.571 z M126.812,179.077 C125.918,175.738 123.629,172.341 120.654,170.51 L120.64,170.503 L120.633,170.496 L120.626,170.496 L120.619,170.489 C120.002,173.135 118.554,175.513 116.486,177.275 L116.5,177.332 L116.521,177.404 L116.521,177.418 L116.528,177.44 C117.093,179.857 117.179,182.224 116.657,184.812 L116.65,184.834 L116.643,184.855 L116.643,184.877 L116.636,184.898 L116.628,184.941 L116.621,184.962 L116.621,184.984 C119.791,186.646 123.451,187.121 126.94,186.321 C127.491,183.932 127.447,181.445 126.812,179.077 z M123.944,160.685 C122.327,160.475 120.687,160.53 119.088,160.849 L119.074,160.857 L119.046,160.857 L119.038,160.864 C119.536,161.668 119.944,162.524 120.254,163.417 L120.268,163.452 C120.809,165.038 121.032,166.715 120.926,168.387 L120.912,168.587 L120.926,168.594 L120.933,168.601 C123.186,169.953 124.931,171.647 126.418,173.878 L126.425,173.886 L126.432,173.907 L126.447,173.929 L126.461,173.943 C129.879,172.877 132.801,170.621 134.699,167.586 C133.4,165.506 131.61,163.777 129.486,162.551 C128.365,161.901 127.163,161.403 125.911,161.071 L125.767,161.035 C125.168,160.878 124.559,160.761 123.944,160.685 z M125.603,159.176 z M127.191,154.213 z M111.108,155.172 C113.79,155.801 116.099,157.238 117.894,159.305 C120.405,158.666 123.029,158.62 125.56,159.169 L125.581,159.169 L125.603,159.176 C127.279,156.008 127.754,152.341 126.94,148.85 C124.548,148.306 122.06,148.35 119.689,148.979 C116.198,149.927 113.166,152.103 111.151,155.107 L111.151,155.115 L111.144,155.122 L111.137,155.129 L111.129,155.136 L111.129,155.143 L111.122,155.15 L111.115,155.164 z M101.476,158.926 z M101.426,158.962 z M114.934,176.253 z M114.991,176.217 z M109.578,156.702 C109.124,156.627 108.664,156.594 108.205,156.602 L108.205,156.616 C105.802,156.616 103.456,157.396 101.512,158.897 L101.497,158.904 L101.49,158.911 L101.476,158.926 L101.468,158.933 L101.461,158.933 L101.454,158.94 L101.447,158.947 L101.44,158.947 L101.433,158.955 L101.426,158.962 C99.153,160.744 97.677,163.353 97.321,166.22 L97.307,166.306 C97.261,166.731 97.237,167.158 97.235,167.586 C97.235,168.794 97.435,170.01 97.829,171.147 L97.836,171.19 C99.369,175.607 103.529,178.571 108.205,178.577 L108.205,178.562 C110.615,178.555 112.96,177.783 114.905,176.281 L114.912,176.267 L114.927,176.26 L114.934,176.253 L114.948,176.245 L114.955,176.238 L114.969,176.231 L114.969,176.224 L114.977,176.224 L114.991,176.217 C117.261,174.433 118.734,171.824 119.088,168.959 L119.11,168.873 L119.16,168.279 L119.174,167.586 C119.174,166.384 118.981,165.169 118.588,164.032 L118.574,163.989 C117.205,160.046 113.718,157.222 109.578,156.702 z M108.205,154.843 L109.006,154.864 L109.206,154.878 L109.213,154.864 L109.22,154.857 C110.707,152.383 112.374,150.788 114.54,149.344 L114.562,149.336 C113.499,145.915 111.243,142.989 108.205,141.091 C106.127,142.397 104.4,144.188 103.17,146.312 C101.349,149.452 100.746,153.153 101.476,156.709 L101.476,156.73 L101.483,156.745 L101.483,156.759 C103.514,155.493 105.831,154.843 108.205,154.843 z" fill="#FACC38"/>
    </g>
  </g>
</svg>
